<svg id="Layer_1" data-name="Layer 1" xmlns="http://www.w3.org/2000/svg" viewBox="0 0 54.1 51.98"><defs><style>.cls-1{fill:#fff;}</style></defs><title>nmg-de-icons</title><rect width="54.1" height="51.98" rx="12" ry="12"/><path class="cls-1" d="M31.49,31.67h-9.4a1.45,1.45,0,0,0-1.44,1.44v5.25a1.45,1.45,0,0,0,1.44,1.44h9.39a1.45,1.45,0,0,0,1.44-1.44V33.11A1.44,1.44,0,0,0,31.49,31.67Z"/><path class="cls-1" d="M46.07,31.67h-9.4a1.45,1.45,0,0,0-1.44,1.44v5.25a1.45,1.45,0,0,0,1.44,1.44h9.4a1.45,1.45,0,0,0,1.44-1.44V33.11A1.46,1.46,0,0,0,46.07,31.67Z"/><path class="cls-1" d="M16.91,31.67H7.51a1.45,1.45,0,0,0-1.44,1.44v5.25a1.45,1.45,0,0,0,1.44,1.44H16.9a1.45,1.45,0,0,0,1.44-1.44V33.11A1.45,1.45,0,0,0,16.91,31.67Z"/><path class="cls-1" d="M13.34,27.18H25.67v2.51h2.25V27.18H40.25v2.51H42.5V26a1.12,1.12,0,0,0-1.12-1.12H27.91V21.21h6.33A1.76,1.76,0,0,0,36,19.46V10.78A1.76,1.76,0,0,0,34.24,9H19.33a1.76,1.76,0,0,0-1.75,1.75v8.69a1.76,1.76,0,0,0,1.75,1.75h6.33v3.72H12.21a1.12,1.12,0,0,0-1.12,1.12V29.7h2.25V27.18Zm7.1-14.1a0.5,0.5,0,0,1,.5-0.5h11.7a0.5,0.5,0,0,1,.5.5v0.66a0.5,0.5,0,0,1-.5.5H20.94a0.5,0.5,0,0,1-.5-0.5V13.08h0Zm0.5,4.57a0.5,0.5,0,0,1-.5-0.5V16.48a0.5,0.5,0,0,1,.5-0.5h11.7a0.5,0.5,0,0,1,.5.5v0.66a0.5,0.5,0,0,1-.5.5H20.94Z"/></svg>