<svg id="Layer_1" data-name="Layer 1" xmlns="http://www.w3.org/2000/svg" viewBox="0 0 54.1 51.98"><defs><style>.cls-1{fill:#fff;}</style></defs><title>nmg-de-icons</title><rect width="54.1" height="51.98" rx="12" ry="12"/><path class="cls-1" d="M10.91,41.75H22V39.86H10.91v1.89Zm8.82-1.21h1.52v0.53H19.73V40.54ZM16.07,25.83a0.61,0.61,0,1,1,.61.61A0.61,0.61,0,0,1,16.07,25.83Zm4,0a0.61,0.61,0,1,1,.61.61A0.61,0.61,0,0,1,20,25.83Zm-9.12,11H22V34.9H10.91v1.89Zm8.82-1.21h1.52v0.53H19.73V35.58ZM8.44,44.86H24.31V22.59H8.44V44.86ZM20.64,24.22A1.61,1.61,0,1,1,19,25.83,1.61,1.61,0,0,1,20.64,24.22Zm-4,0a1.61,1.61,0,1,1-1.61,1.61A1.61,1.61,0,0,1,16.68,24.22ZM9.91,28.88H23v3.88H9.91V28.88Zm0,5H23v3.88H9.91V33.91Zm0,5H23v3.88H9.91V38.86Zm1-7.1H22V29.88H10.91v1.89Zm8.82-1.28h1.52V31H19.73V30.49Zm26.4-4a16.72,16.72,0,0,1-.25,2.86l-0.29,1.36a16.68,16.68,0,0,1-19,12.22V33a5.32,5.32,0,0,1,1.19.81c0.58,0.46,1.47.08,2.15,0.11,1.71,0.06,2,1.9,2.12,3.24,0.09,1,1,1.79.74,2.81a2.12,2.12,0,0,1-.73,1.2,14.85,14.85,0,0,0,7.18-3.43c-0.69-1.73-2.69-2.79-2.51-5.07,0.41-3.88,4.88-2.22,7.4-3.54A14.86,14.86,0,0,0,36.7,13.5l0.22,0.21c2.93,2.93,1.35,3.16,1.81,6.55,0,1.13,2.33.94,2.11,3-0.45,2-.53,4-2.56,2.33s-3.39-.34-4.06-0.56c-0.9-.45-1.36-2.48-2.48-2.48-3.16.23-1.13,6.55-5,4.74l-0.21-.13V20.43H24.41c-0.07-2.56-.27-5.18-2.49-6.79a15,15,0,0,0-6.08,6.79h-2A16.7,16.7,0,0,1,46.13,26.5Z"/></svg>