<svg id="Layer_1" data-name="Layer 1" xmlns="http://www.w3.org/2000/svg" viewBox="0 0 55.1 52.98"><defs><style>.cls-1{fill:#fff;stroke:#000;stroke-miterlimit:10;}</style></defs><title>nmg-de-icons</title><rect class="cls-1" x="0.5" y="0.5" width="54.1" height="51.98" rx="12" ry="12"/><path d="M38.08,18.49a10.09,10.09,0,0,0-1.15.07,10,10,0,0,0-19.46-.06,10,10,0,0,0,.23,20h0.16a15.2,15.2,0,0,0,20.08,0h0.16A10,10,0,0,0,38.08,18.49ZM27.89,23a2.69,2.69,0,1,1-2.69,2.69A2.69,2.69,0,0,1,27.89,23ZM21,28.18a1.47,1.47,0,0,1,2,.54,5.58,5.58,0,0,0,9.67,0,1.47,1.47,0,0,1,2.54,1.47,8.52,8.52,0,0,1-14.76,0A1.47,1.47,0,0,1,21,28.18Zm18.4,5.58a13.34,13.34,0,0,1-23.11,0,1.47,1.47,0,1,1,2.54-1.47,10.41,10.41,0,0,0,18,0A1.47,1.47,0,0,1,39.44,33.76Z"/></svg>