<svg id="Layer_1" data-name="Layer 1" xmlns="http://www.w3.org/2000/svg" viewBox="0 0 54.1 51.98"><defs><style>.cls-1{fill:#fff;}</style></defs><title>nmg-de-icons</title><rect width="54.1" height="51.98" rx="12" ry="12"/><path class="cls-1" d="M24.81,26.24H7.68L20.9,14.44c-3.32-4.92-8.34-4-12.81.14-5,4.67-1.68,9.53-.92,11.36,0.05,0.11.12,0.22,0.18,0.33C7,31,11.65,36.05,11.65,36.05l-0.29,9h7.17l0.63-5.89s0.36,0.6,2.47.77,1.86-2.4,1.86-2.4,1.41-.62,1.41-1.09a2.1,2.1,0,0,0-.83-1.07,1.61,1.61,0,0,0,1.22-.21c0.32-.38-0.4-1.74-0.4-1.74a2.73,2.73,0,0,0,1.75-.74c0.65-.71-2-2.83-2-4.2A11.36,11.36,0,0,0,24.81,26.24Z"/><path class="cls-1" d="M46.13,14.94c-4.46-4.19-9.49-5.06-12.81-.14L46.55,26.6H29.42a11.18,11.18,0,0,0,.22,2.2c0,1.37-2.7,3.48-2,4.2a2.74,2.74,0,0,0,1.75.74s-0.72,1.36-.4,1.74a1.61,1.61,0,0,0,1.22.21,2.1,2.1,0,0,0-.83,1.07c0,0.47,1.41,1.09,1.41,1.09s-0.26,2.58,1.85,2.4,2.47-.77,2.47-0.77L35.7,45h7.17l-0.29-8.6s4.64-5.05,4.28-9.78c0.06-.11.13-0.22,0.18-0.33C47.81,24.47,51.12,19.62,46.13,14.94Z"/><path class="cls-1" d="M16.28,24.39l1.41,0.78c0-.07,3.77-6.74,9-6.25,3.41,0.33,5.11,1.65,5.88,2.55l-1.12.42,3.26,2.72,0.68-4.19-1.23.46c-0.83-1.16-2.87-3.14-7.31-3.57C20.59,16.73,16.45,24.08,16.28,24.39Z"/></svg>