<svg id="Layer_1" data-name="Layer 1" xmlns="http://www.w3.org/2000/svg" viewBox="0 0 54.1 51.98"><defs><style>.cls-1{fill:#fff;}</style></defs><title>nmg-de-icons</title><rect width="54.1" height="51.98" rx="12" ry="12"/><g id="Layer_5" data-name="Layer 5"><path class="cls-1" d="M36.1,23.47a4,4,0,0,1-5.73-.2,4,4,0,0,1-.2-5.73c1.92-1.92,3.21-.86,4.56-1.45a0.27,0.27,0,0,0,0-.45L28.48,9.37a1.6,1.6,0,0,0-2.26,0l-6.68,6.68c-0.14.14-.21,0-0.24,0-0.63-1.36.52-2.59-1.42-4.52a4,4,0,0,0-5.73.2,4,4,0,0,0-.2,5.73c1.91,1.91,3.15.82,4.49,1.4,0.07,0,.23.09,0,0.28l-6.05,6.05a1.6,1.6,0,0,0,0,2.26l6.33,6.33c0.18,0.18.06,0.26,0,.29-1.35.59-2.57-.52-4.48,1.4a4,4,0,0,0,.2,5.73,4,4,0,0,0,5.73.2c1.92-1.92.81-3.15,1.41-4.5,0-.06.07-0.21,0.19-0.08l6.42,6.42a1.6,1.6,0,0,0,2.26,0L44.28,27.41a1.6,1.6,0,0,0,0-2.26L37.9,18.78c-0.18-.18-0.31,0-0.36.14C36.89,20.29,38,21.53,36.1,23.47Z"/></g></svg>