<svg id="Layer_1" data-name="Layer 1" xmlns="http://www.w3.org/2000/svg" viewBox="0 0 55.1 52.98"><defs><style>.cls-1{fill:#fff;stroke:#000;stroke-miterlimit:10;}</style></defs><title>nmg-de-icons</title><rect class="cls-1" x="0.5" y="0.5" width="54.1" height="51.98" rx="12" ry="12"/><path d="M44.93,37.78h0a3.82,3.82,0,0,1-2.5-1l-7.22-6.28a4.86,4.86,0,0,1,0-7.13l7.22-6.28a3.81,3.81,0,0,1,4.45-.4,4.61,4.61,0,0,1,2.11,4V33.26a4.61,4.61,0,0,1-2.11,4A3.75,3.75,0,0,1,44.93,37.78Z"/><path d="M29.56,40H10a3.24,3.24,0,0,1-3.23-3.23V17.21A3.24,3.24,0,0,1,10,14H29.56a3.23,3.23,0,0,1,3.23,3.23V36.75A3.23,3.23,0,0,1,29.56,40Z"/></svg>