<svg id="Layer_1" data-name="Layer 1" xmlns="http://www.w3.org/2000/svg" viewBox="0 0 55.1 52.98"><defs><style>.cls-1{fill:#fff;stroke:#000;stroke-miterlimit:10;}</style></defs><title>nmg-de-icons</title><rect class="cls-1" x="0.5" y="0.5" width="54.1" height="51.98" rx="12" ry="12"/><path d="M27.63,23.87c2.15,0,7.21-2.59,7.21-8.8,0-4.86-.66-8.8-7.21-8.8s-7.21,3.94-7.21,8.8C20.42,21.28,25.48,23.87,27.63,23.87Z"/><path d="M43.36,41.59H35a3.07,3.07,0,0,0-2.88-2H29V37.46c10.5-.3,12-4.14,12-4.31a0.5,0.5,0,0,0,0-.25c-0.37-2.29-1.13-5.24-2.65-6.29-1-.72-4.66-2.65-6.21-3.48h0a0.51,0.51,0,0,0-.55,0,6.57,6.57,0,0,1-2.64,1.27,0.51,0.51,0,0,0-.36.31l-1,2.52-1-2.52a0.51,0.51,0,0,0-.36-0.31,6.57,6.57,0,0,1-2.64-1.27,0.51,0.51,0,0,0-.55,0c-1.53.82-5.2,2.79-6.23,3.49-1.75,1.18-2.52,5.45-2.65,6.29a0.51,0.51,0,0,0,0,.25c0.06,0.17,1.55,4,12,4.31v2.12H23.18a3.07,3.07,0,0,0-2.88,2H11.9a1.06,1.06,0,0,0,0,2.12H20.3a3.07,3.07,0,0,0,2.88,2h8.89a3.07,3.07,0,0,0,2.88-2h8.41A1.06,1.06,0,0,0,43.36,41.59Z"/></svg>