<svg id="Layer_1" data-name="Layer 1" xmlns="http://www.w3.org/2000/svg" viewBox="0 0 55.1 52.98"><defs><style>.cls-1,.cls-2{fill:#fff;}.cls-1{stroke:#000;stroke-miterlimit:10;}</style></defs><title>nmg-de-icons</title><rect class="cls-1" x="0.5" y="0.5" width="54.1" height="51.98" rx="12" ry="12"/><path class="cls-2" d="M32,32.17h-9.4a1.45,1.45,0,0,0-1.44,1.44v5.25a1.45,1.45,0,0,0,1.44,1.44H32a1.45,1.45,0,0,0,1.44-1.44V33.61A1.44,1.44,0,0,0,32,32.17Z"/><path class="cls-2" d="M46.57,32.17h-9.4a1.45,1.45,0,0,0-1.44,1.44v5.25a1.45,1.45,0,0,0,1.44,1.44h9.4A1.45,1.45,0,0,0,48,38.86V33.61A1.46,1.46,0,0,0,46.57,32.17Z"/><path class="cls-2" d="M17.41,32.17H8a1.45,1.45,0,0,0-1.44,1.44v5.25A1.45,1.45,0,0,0,8,40.31H17.4a1.45,1.45,0,0,0,1.44-1.44V33.61A1.45,1.45,0,0,0,17.41,32.17Z"/><path class="cls-2" d="M13.84,27.68H26.17v2.51h2.25V27.68H40.75v2.51H43V26.55a1.12,1.12,0,0,0-1.12-1.12H28.41V21.71h6.33A1.76,1.76,0,0,0,36.49,20V11.28a1.76,1.76,0,0,0-1.75-1.75H19.83a1.76,1.76,0,0,0-1.75,1.75V20a1.76,1.76,0,0,0,1.75,1.75h6.33v3.72H12.71a1.12,1.12,0,0,0-1.12,1.12V30.2h2.25V27.68Zm7.1-14.1a0.5,0.5,0,0,1,.5-0.5h11.7a0.5,0.5,0,0,1,.5.5v0.66a0.5,0.5,0,0,1-.5.5H21.44a0.5,0.5,0,0,1-.5-0.5V13.58h0Zm0.5,4.57a0.5,0.5,0,0,1-.5-0.5V17a0.5,0.5,0,0,1,.5-0.5h11.7a0.5,0.5,0,0,1,.5.5v0.66a0.5,0.5,0,0,1-.5.5H21.44Z"/><g id="_38" data-name="38"><path d="M13.78,26.49h2.71V31h1v-4.5h2.77V25.65H33.78v0.87h2.51V31h1V26.52h2.95V25.65h4.52v-1H40.22V23.8H33.78v0.81H27.54V22.52H26.46v2.09H20.27V23.74H13.78v0.87h-5v1h5v0.84Z"/><path d="M24.86,20.72H29V18.66H34.6v-10H19.42v10h5.44v2.06ZM21,17.12V10.19h12.1v6.93H21Z"/><rect x="22.65" y="20.76" width="8.53" height="0.42"/><path d="M7.9,42.13h5.44v2.06h4.11V42.13h5.63v-10H7.9v10Zm1.54-8.47h12.1v6.93H9.44V33.66Z"/><rect x="11.13" y="44.23" width="8.53" height="0.42"/><path d="M31.18,31.89v10h5.44V44h4.11V41.9h5.63v-10H31.18Zm13.64,8.47H32.72V33.43h12.1v6.93Z"/><rect x="34.41" y="44" width="8.53" height="0.42"/></g></svg>