<svg id="Layer_1" data-name="Layer 1" xmlns="http://www.w3.org/2000/svg" viewBox="0 0 55.1 52.98"><defs><style>.cls-1,.cls-2{fill:#fff;}.cls-1{stroke:#000;stroke-miterlimit:10;}.cls-3{fill:#030104;}</style></defs><title>nmg-de-icons</title><rect class="cls-1" x="0.5" y="0.5" width="54.1" height="51.98" rx="12" ry="12"/><g id="Layer_5" data-name="Layer 5"><path class="cls-2" d="M36.6,24a4,4,0,0,1-5.73-.2,4,4,0,0,1-.2-5.73c1.92-1.92,3.21-.86,4.56-1.45a0.27,0.27,0,0,0,0-.45L29,9.87a1.6,1.6,0,0,0-2.26,0L20,16.55c-0.14.14-.21,0-0.24,0-0.63-1.36.52-2.59-1.42-4.52a4,4,0,0,0-5.73.2,4,4,0,0,0-.2,5.73c1.91,1.91,3.15.82,4.49,1.4,0.07,0,.23.09,0,0.28l-6.05,6.05a1.6,1.6,0,0,0,0,2.26l6.33,6.33c0.18,0.18.06,0.26,0,.29-1.35.59-2.57-.52-4.48,1.4a4,4,0,0,0,.2,5.73,4,4,0,0,0,5.73.2c1.92-1.92.81-3.15,1.41-4.5,0-.06.07-0.21,0.19-0.08l6.42,6.42a1.6,1.6,0,0,0,2.26,0L44.78,27.91a1.6,1.6,0,0,0,0-2.26L38.4,19.28c-0.18-.18-0.31,0-0.36.14C37.39,20.79,38.55,22,36.6,24Z"/></g><path class="cls-3" d="M30.27,9.33A13.51,13.51,0,0,0,19,30.28H18.08v2a2.51,2.51,0,0,0-2.56.6L9.15,39.22a2.51,2.51,0,0,0,0,3.56L10.34,44a2.52,2.52,0,0,0,3.56,0l6.36-6.36a2.49,2.49,0,0,0,.59-0.95h0.38V32.87A13.51,13.51,0,1,0,30.27,9.33Zm0,24.54a11,11,0,1,1,11-11A11,11,0,0,1,30.27,33.87Z"/><path class="cls-3" d="M39.84,23.78a10.09,10.09,0,0,0-9.57-6.44,10.1,10.1,0,0,0-9.57,6.44,1.38,1.38,0,0,0,2.6.9A5.67,5.67,0,0,1,23.59,24a6.78,6.78,0,0,0,13.36,0,5.26,5.26,0,0,1,.28.61A1.38,1.38,0,0,0,39.84,23.78Zm-9.56,4.75c-3.1,0-5.37-1.94-5.6-6a7.09,7.09,0,0,1,2.91-2,3.56,3.56,0,1,0,5.37,0,7.07,7.07,0,0,1,3,2C35.68,26.85,33.37,28.53,30.28,28.53Z"/></svg>