<svg id="Layer_1" data-name="Layer 1" xmlns="http://www.w3.org/2000/svg" viewBox="0 0 54.1 51.98"><defs><style>.cls-1{fill:#fff;}</style></defs><title>nmg-de-icons</title><rect x="-0.02" width="54.1" height="51.98" rx="12" ry="12"/><path class="cls-1" d="M42.9,19.19a10.47,10.47,0,0,0-19-8.58,8.85,8.85,0,0,0-13.56,7.5,8.92,8.92,0,0,0,.06,1H10.31a4.93,4.93,0,1,0,0,9.86H12.1a2.17,2.17,0,0,1,.31-2.69L13.65,25l0.74-.74a2.18,2.18,0,0,1,3.08,0h0a2.18,2.18,0,0,1,2.18-2.18h2.8a2.18,2.18,0,0,1,2.18,2.18h0a2.2,2.2,0,0,1,3.09,0l0.92,0.92,1.07,1.07A2.17,2.17,0,0,1,30,29h3c2-3.19,8.1-4.65,9.79-.59a1.93,1.93,0,0,1,.1.51A4.91,4.91,0,0,0,42.9,19.19Z"/><path class="cls-1" d="M18.33,37.11A5,5,0,1,1,26,33a5.06,5.06,0,0,1-.1,1L30.5,32V31.55a0.77,0.77,0,0,0-.77-0.77H28.13a7.37,7.37,0,0,0-.54-1.28l1.13-1.13a0.77,0.77,0,0,0,0-1.09l-2-2a0.77,0.77,0,0,0-1.09,0l-1.13,1.13a7.24,7.24,0,0,0-1.29-.53V24.29a0.77,0.77,0,0,0-.77-0.77h-2.8a0.77,0.77,0,0,0-.77.77v1.59a7.29,7.29,0,0,0-1.29.53l-1.12-1.12a0.78,0.78,0,0,0-1.1,0l-2,2a0.78,0.78,0,0,0,0,1.09l1.13,1.12A7.34,7.34,0,0,0,14,30.78H12.4a0.77,0.77,0,0,0-.77.77v2.8a0.77,0.77,0,0,0,.77.77H14a7.46,7.46,0,0,0,.54,1.28L13.4,37.54a0.77,0.77,0,0,0,0,1.09l0.67,0.67a4,4,0,0,1,1.41-1Z"/><path class="cls-1" d="M21.06,29.38a3.57,3.57,0,0,0-1,7l4.08-1.7A3.54,3.54,0,0,0,24.64,33,3.58,3.58,0,0,0,21.06,29.38Z"/><path class="cls-1" d="M43.06,33.61a0.57,0.57,0,0,0-.22,0l-2.92,1.22a1,1,0,0,1-1.32-.54l-0.89-2.14a1,1,0,0,1,.54-1.32l2.92-1.22a0.56,0.56,0,0,0,.3-0.74,2.64,2.64,0,0,0-3-1.56L37,27.69a4.63,4.63,0,0,0-3.15,2.52L32.7,32.65,16,39.6a2.66,2.66,0,0,0,2,4.91l16.69-7,2.54,0.89a4.62,4.62,0,0,0,4-.46l1.26-.8a2.64,2.64,0,0,0,1-3.24A0.56,0.56,0,0,0,43.06,33.61Z"/></svg>