<?xml version="1.0" encoding="utf-8"?>
<!-- Generator: Adobe Illustrator 19.2.1, SVG Export Plug-In . SVG Version: 6.00 Build 0)  -->
<svg version="1.1" id="Layer_1" xmlns="http://www.w3.org/2000/svg" xmlns:xlink="http://www.w3.org/1999/xlink" x="0px" y="0px"
	 viewBox="0 0 1478.5 196.1" style="enable-background:new 0 0 1478.5 196.1;" xml:space="preserve">
<style type="text/css">
	.st0{fill:#045C22;}
	.st1{fill:#045C22;stroke:#05662C;stroke-width:5;stroke-miterlimit:10;}
</style>
<title>patrick_logo_NAME</title>
<g id="Layer_4">
	<g>
		<path class="st0" d="M1.6,12.4h39.9c32.6,0,51.9,9.9,51.9,38c0,26.6-19.5,39.6-51.9,39.6H11.8v58.4H1.6V12.4z M38.9,82
			C68.8,82,83,72.7,83,50.4c0-23-14.5-30-44.1-30h-27V82L38.9,82L38.9,82z"/>
		<path class="st0" d="M175.4,86.3c0.4-15.1-4.2-31.4-25-31.4c-14.4,0-26.8,6.6-33.9,11.6l-4.4-6.8c7.5-5,22.2-12.8,39.4-12.8
			c25.3,0,33.7,16.9,33.7,38.2v63.4H177l-1.1-12.8h-0.4c-10.9,8.1-23.7,15.3-37.7,15.3c-16.9,0-31-8.5-31-27.2
			C106.7,101.8,128.2,91.2,175.4,86.3z M139.3,143.1c12.2,0,23.1-5.6,36.1-16.1V93.3c-43.7,4.8-58.5,14.2-58.5,29.9
			C116.9,137.5,127.1,143.1,139.3,143.1L139.3,143.1z"/>
		<path class="st0" d="M225.7,57.2h-16.6v-7l16.9-0.8l1.3-28.7h8.4v28.7h30.8v7.8h-30.8v64.6c0,12.6,3.3,21.1,18,21.1
			c4.6-0.2,9.1-1.3,13.3-3.1l2.7,7.4c-6.2,2.1-12.9,3.7-17.3,3.7c-20.6,0-26.6-12.2-26.6-29.9L225.7,57.2L225.7,57.2z"/>
		<path class="st0" d="M292.4,49.3h8.4l0.9,18.4h0.7c7.1-12.2,17.5-20.8,30.1-20.8c3.7-0.2,7.3,0.5,10.6,2.1l-2.2,8.3
			c-3.1-1.2-6.4-1.8-9.8-1.6c-9.5,0-20.8,6.8-29,25.4v67.5h-9.8V49.3z"/>
		<path class="st0" d="M358.9,17.4c0-5.2,4-8.3,8.9-8.3s8.9,3.1,8.9,8.3c0,4.8-4,8.1-8.9,8.1S358.9,22.1,358.9,17.4z M362.7,49.4
			h9.8v99.1h-9.8V49.4L362.7,49.4z"/>
		<path class="st0" d="M453.1,46.9c14.6,0,24.2,6,31.2,12.2l-5.8,6.4c-6.9-6-14.8-10.5-25.3-10.5c-21.7,0-38.6,18-38.6,44.2
			c0,26,15.3,43.8,38.6,43.8c11.3,0,21.1-5.2,28.4-11.4l5.1,6.2c-9.1,7.6-20.4,13.2-33.9,13.2c-27.5,0-48.3-19-48.3-51.8
			C404.6,65.9,427.2,46.9,453.1,46.9z"/>
		<path class="st0" d="M513,0h9.8v109.4h0.4l52.5-60.1H587l-34.6,39.2l40.3,59.9h-10.9l-35.2-53.1l-23.9,26v27H513V0z"/>
		<path class="st0" d="M715.5,9.9c19.7,0,31.9,8.7,39.7,16.3l-6,6.2c-7.5-7.6-17.7-13.8-33.7-13.8c-33.5,0-54.1,23.7-54.1,61.5
			s19.7,62.1,53,62.1c13.1,0,25.5-3.7,32.6-10.3V89.6h-34.8v-8.1h44.5v53.9c-9.1,9.1-24.2,15.5-43.2,15.5
			c-37.5,0-62.7-27.5-62.7-70.8C650.8,37,677,9.9,715.5,9.9z"/>
		<path class="st0" d="M792.2,49.3h8.4l0.8,18.4h0.7c7.1-12.2,17.5-20.9,30.1-20.9c3.7-0.2,7.3,0.5,10.6,2.1l-2.2,8.3
			c-3.1-1.2-6.4-1.8-9.8-1.6c-9.5,0-20.8,6.8-29,25.4v67.5h-9.8L792.2,49.3L792.2,49.3z"/>
		<path class="st0" d="M861,49.3h9.8v62.3c0,21.1,7.1,31,24.2,31c12.6,0,21.9-6.2,34.4-20.2V49.3h9.8v99.1h-8.2l-1.1-16.5h-0.4
			c-10.4,11.4-21.5,19-36.1,19c-21.9,0-32.1-12.4-32.1-38L861,49.3L861,49.3z M875.1,17.3c0-4.1,3.5-7.4,8.2-7.4s8.2,3.3,8.2,7.4
			c0,4.3-3.5,7.6-8.2,7.6S875.1,21.7,875.1,17.3L875.1,17.3z M910.1,17.3c0-4.1,3.5-7.4,8.2-7.4c4.2-0.3,7.7,2.9,8,7.1
			s-2.9,7.7-7.1,8c-0.3,0-0.6,0-1,0C913.7,25,910.2,21.7,910.1,17.3L910.1,17.3z"/>
		<path class="st0" d="M979.8,49.3h8.4l0.9,15.3h0.7c10.9-10.1,21.9-17.8,36.6-17.8c21.9,0,32.1,12.4,32.1,38v63.6h-9.8V86.1
			c0-21.1-7.1-31-24.4-31c-12.6,0-21.7,6.2-34.8,18.6v74.8h-9.8L979.8,49.3L979.8,49.3z"/>
		<path class="st0" d="M1097.7,0h9.8v42.9l-0.4,19.4c10.9-8.5,23.7-15.5,36.8-15.5c28.4,0,42.6,19.8,42.6,50.6
			c0,33.6-21.9,53.5-47,53.5c-10.2,0-21.9-4.5-31.9-11.8h-0.4l-1.1,9.3h-8.2L1097.7,0L1097.7,0z M1138.9,142.9
			c21.5,0,37-18.6,37-45.4c0-24.4-9.3-42.5-33.7-42.5c-10.6,0-22.2,5.8-34.8,16.3V130C1119.2,139.4,1130.7,142.9,1138.9,142.9
			L1138.9,142.9z"/>
		<path class="st0" d="M1255.7,46.9c25.3,0,40.8,16.7,40.8,45.8c0.1,2.5-0.1,5-0.4,7.4h-76.7c0.4,25,16.2,42.9,40.1,42.9
			c10.2,0.1,20.2-3,28.6-8.9l4,7c-8.4,4.8-18,9.7-33.5,9.7c-27.3,0-49.2-19.4-49.2-51.8S1232,46.9,1255.7,46.9z M1287.2,93.1
			c0-25.4-12.2-38.4-31.2-38.4c-18.2,0-34.4,14.7-36.6,38.4L1287.2,93.1L1287.2,93.1z"/>
		<path class="st0" d="M1325.3,49.3h8.4l0.9,18.4h0.7c7.1-12.2,17.5-20.9,30.1-20.9c3.7-0.2,7.3,0.5,10.6,2.1l-2.2,8.3
			c-3.1-1.2-6.4-1.8-9.8-1.6c-9.5,0-20.8,6.8-29,25.4v67.5h-9.8L1325.3,49.3L1325.3,49.3z"/>
		<path class="st0" d="M1400.2,144.7v-0.8c-5.9-3.1-9.5-9.3-9.3-15.9c0-8.9,6.9-15.1,11.5-18.2V109c-6.7-5.4-13.3-15.3-13.3-27.2
			c0-20.4,16.6-34.9,37.5-34.9c4.8,0,9.5,0.8,14,2.5h36.1V57h-24.8c7.5,6.1,11.8,15.3,11.8,25c0,20.2-16.2,34.9-37,34.9
			c-6,0-12.9-1.4-17.7-4.1c-4.7,3.5-8.6,7.6-8.6,14.2c0,7.2,4.4,13,20.4,13h22.8c23.9,0,35,7,35,22.7c0,17.1-19.7,33.4-50.3,33.4
			c-26.8,0-43.7-10.7-43.7-27.5C1384.5,160,1390.5,151.3,1400.2,144.7z M1429.2,188.7c23.9,0,39.2-12.6,39.2-25
			c0-10.9-8.6-15.1-24.6-15.1H1421c-4.5-0.1-8.9-0.7-13.3-1.6c-9.8,6.2-14,13.8-14,20.9C1393.8,180.2,1406.7,188.7,1429.2,188.7
			L1429.2,188.7z M1454.1,81.8c0-16.7-12.4-27.5-27.5-27.5s-27.7,10.5-27.7,27.5c0,16.7,12.9,27.9,27.7,27.9
			C1441.2,109.6,1454.1,98.4,1454.1,81.8L1454.1,81.8z"/>
	</g>
	<line class="st1" x1="0" y1="167.4" x2="1370.3" y2="167.4"/>
</g>
</svg>
